<svg width="720" height="720" xmlns="http://www.w3.org/2000/svg" xmlns:xlink="http://www.w3.org/1999/xlink" xml:space="preserve" overflow="hidden"><defs><clipPath id="clip0"><rect x="280" y="0" width="720" height="720"/></clipPath></defs><g clip-path="url(#clip0)" transform="translate(-280 0)"><path d="M568.34 390C557.399 390 547.326 395.955 542.053 405.543 531.057 425.535 545.521 450 568.339 450L847.6 450C864.169 450 877.6 463.431 877.6 480 877.6 496.569 864.169 510 847.6 510L817.9 510 517.9 510 517.601 510C472.001 510 443.201 461.1 465.101 420.9L490.695 374.64C500.053 357.729 500.69 337.344 492.407 319.881L407.563 141.003C401.479 128.176 388.552 120 374.355 120L367.601 120C351.033 120 337.601 106.568 337.601 90 337.601 73.4316 351.033 60 367.601 60L397.719 60C420.912 60 442.029 73.3671 451.951 94.3305L457.068 105.141C458.033 105.048 459.011 105 460 105L910 105C926.569 105 940 118.432 940 135 940 143.196 936.712 150.625 931.387 156.039 932.344 162.308 931.318 168.929 928.024 174.912L826.6 359.1C816.4 377.7 796.6 390 774.1 390L568.34 390ZM517.9 510C551.037 510 577.9 536.862 577.9 570 577.9 603.138 551.037 630 517.9 630 484.763 630 457.9 603.138 457.9 570 457.9 536.862 484.763 510 517.9 510ZM817.9 510C784.762 510 757.9 536.862 757.9 570 757.9 603.138 784.762 630 817.9 630 851.038 630 877.9 603.138 877.9 570 877.9 536.862 851.038 510 817.9 510Z" fill="#FFFFFF" fill-rule="evenodd"/><path d="M517.9 600C534.468 600 547.9 586.569 547.9 570 547.9 553.431 534.468 540 517.9 540 501.331 540 487.9 553.431 487.9 570 487.9 586.569 501.331 600 517.9 600Z" fill="#FFFFFF"/><path d="M847.9 570C847.9 586.569 834.469 600 817.9 600 801.331 600 787.9 586.569 787.9 570 787.9 553.431 801.331 540 817.9 540 834.469 540 847.9 553.431 847.9 570Z" fill="#FFFFFF"/></g></svg>