<svg width="720" height="720" xmlns="http://www.w3.org/2000/svg" xmlns:xlink="http://www.w3.org/1999/xlink" xml:space="preserve" overflow="hidden"><defs><clipPath id="clip0"><rect x="280" y="0" width="720" height="720"/></clipPath></defs><g clip-path="url(#clip0)" transform="translate(-280 0)"><path d="M695.364 372.998 787.751 426.354C796.77 431.583 799.688 443.407 794.61 452.198 789.381 461.255 778.088 464.552 768.804 459.171L674.825 404.905C665.2 412.408 653.111 416.842 640 416.842 608.623 416.842 583.158 391.377 583.158 360 583.158 335.255 598.96 314.186 621.053 306.379L621.053 132.746C621.053 122.211 629.844 113.685 640 113.685 650.459 113.685 658.947 122.514 658.947 132.746L658.947 306.379C681.04 314.186 696.842 335.255 696.842 360 696.842 364.472 696.311 368.83 695.364 372.998ZM640 720C838.833 720 1000 558.833 1000 360 1000 161.167 838.833 0 640 0 441.167 0 280 161.167 280 360 280 558.833 441.167 720 640 720ZM640 682.105C817.878 682.105 962.105 537.878 962.105 360 962.105 182.122 817.878 37.895 640 37.895 462.122 37.895 317.895 182.122 317.895 360 317.895 537.878 462.122 682.105 640 682.105Z" fill="#F0F4EC" fill-rule="evenodd"/></g></svg>